<svg width="107" height="59" viewBox="0 0 107 59" fill="none" xmlns="http://www.w3.org/2000/svg">
<path d="M38.8592 18.672C41.0672 19.152 42.7632 20.112 43.9472 21.552C45.1632 22.96 45.7712 24.784 45.7712 27.024C45.7712 29.904 44.6992 32.128 42.5552 33.696C40.4432 35.232 37.3072 36 33.1472 36H17.6912V2.4H32.1872C35.9312 2.4 38.8272 3.152 40.8752 4.656C42.9552 6.16 43.9952 8.288 43.9952 11.04C43.9952 12.896 43.5312 14.48 42.6032 15.792C41.7072 17.072 40.4592 18.032 38.8592 18.672ZM21.2432 5.328V17.52H31.9472C34.6672 17.52 36.7632 17.008 38.2352 15.984C39.7072 14.928 40.4432 13.408 40.4432 11.424C40.4432 9.44 39.7072 7.936 38.2352 6.912C36.7632 5.856 34.6672 5.328 31.9472 5.328H21.2432ZM33.0992 33.072C36.1072 33.072 38.3792 32.56 39.9152 31.536C41.4512 30.512 42.2192 28.912 42.2192 26.736C42.2192 22.544 39.1792 20.448 33.0992 20.448H21.2432V33.072H33.0992ZM53.1587 10.752H56.5667V36H53.1587V10.752ZM54.8867 5.232C54.1827 5.232 53.5907 4.992 53.1107 4.512C52.6307 4.032 52.3907 3.456 52.3907 2.784C52.3907 2.144 52.6307 1.584 53.1107 1.104C53.5907 0.623998 54.1827 0.383998 54.8867 0.383998C55.5907 0.383998 56.1827 0.623998 56.6627 1.104C57.1427 1.552 57.3827 2.096 57.3827 2.736C57.3827 3.44 57.1427 4.032 56.6627 4.512C56.1827 4.992 55.5907 5.232 54.8867 5.232ZM78.9133 10.56C82.0813 10.56 84.5933 11.488 86.4493 13.344C88.3373 15.168 89.2813 17.84 89.2813 21.36V36H85.8733V21.696C85.8733 19.072 85.2173 17.072 83.9053 15.696C82.5933 14.32 80.7213 13.632 78.2893 13.632C75.5693 13.632 73.4093 14.448 71.8093 16.08C70.2413 17.68 69.4573 19.904 69.4573 22.752V36H66.0493V10.752H69.3133V15.408C70.2413 13.872 71.5213 12.688 73.1533 11.856C74.8173 10.992 76.7373 10.56 78.9133 10.56ZM21.492 40.672C23.7 41.152 25.396 42.112 26.58 43.552C27.796 44.96 28.404 46.784 28.404 49.024C28.404 51.904 27.332 54.128 25.188 55.696C23.076 57.232 19.94 58 15.78 58H0.324021V24.4H14.82C18.564 24.4 21.46 25.152 23.508 26.656C25.588 28.16 26.628 30.288 26.628 33.04C26.628 34.896 26.164 36.48 25.236 37.792C24.34 39.072 23.092 40.032 21.492 40.672ZM3.87602 27.328V39.52H14.58C17.3 39.52 19.396 39.008 20.868 37.984C22.34 36.928 23.076 35.408 23.076 33.424C23.076 31.44 22.34 29.936 20.868 28.912C19.396 27.856 17.3 27.328 14.58 27.328H3.87602ZM15.732 55.072C18.74 55.072 21.012 54.56 22.548 53.536C24.084 52.512 24.852 50.912 24.852 48.736C24.852 44.544 21.812 42.448 15.732 42.448H3.87602V55.072H15.732ZM35.7915 22.384H39.1995V58H35.7915V22.384ZM59.0021 58.24C56.5701 58.24 54.3781 57.696 52.4261 56.608C50.4741 55.488 48.9381 53.952 47.8181 52C46.6981 50.048 46.1381 47.84 46.1381 45.376C46.1381 42.912 46.6981 40.704 47.8181 38.752C48.9381 36.8 50.4741 35.28 52.4261 34.192C54.3781 33.104 56.5701 32.56 59.0021 32.56C61.4341 32.56 63.6261 33.104 65.5781 34.192C67.5301 35.28 69.0501 36.8 70.1381 38.752C71.2581 40.704 71.8181 42.912 71.8181 45.376C71.8181 47.84 71.2581 50.048 70.1381 52C69.0501 53.952 67.5301 55.488 65.5781 56.608C63.6261 57.696 61.4341 58.24 59.0021 58.24ZM59.0021 55.216C60.7941 55.216 62.3941 54.816 63.8021 54.016C65.2421 53.184 66.3621 52.016 67.1621 50.512C67.9621 49.008 68.3621 47.296 68.3621 45.376C68.3621 43.456 67.9621 41.744 67.1621 40.24C66.3621 38.736 65.2421 37.584 63.8021 36.784C62.3941 35.952 60.7941 35.536 59.0021 35.536C57.2101 35.536 55.5941 35.952 54.1541 36.784C52.7461 37.584 51.6261 38.736 50.7941 40.24C49.9941 41.744 49.5941 43.456 49.5941 45.376C49.5941 47.296 49.9941 49.008 50.7941 50.512C51.6261 52.016 52.7461 53.184 54.1541 54.016C55.5941 54.816 57.2101 55.216 59.0021 55.216ZM103.16 41.2H106.568V54.016C105 55.392 103.144 56.448 101 57.184C98.8559 57.92 96.5999 58.288 94.2319 58.288C90.8719 58.288 87.8479 57.552 85.1599 56.08C82.4719 54.608 80.3599 52.576 78.8239 49.984C77.2879 47.36 76.5199 44.432 76.5199 41.2C76.5199 37.968 77.2879 35.056 78.8239 32.464C80.3599 29.84 82.4719 27.792 85.1599 26.32C87.8479 24.848 90.8879 24.112 94.2799 24.112C96.8399 24.112 99.1919 24.528 101.336 25.36C103.48 26.16 105.288 27.36 106.76 28.96L104.552 31.216C101.896 28.592 98.5199 27.28 94.4239 27.28C91.7039 27.28 89.2399 27.888 87.0319 29.104C84.8559 30.288 83.1439 31.952 81.8959 34.096C80.6479 36.208 80.0239 38.576 80.0239 41.2C80.0239 43.824 80.6479 46.192 81.8959 48.304C83.1439 50.416 84.8559 52.08 87.0319 53.296C89.2079 54.512 91.6559 55.12 94.3759 55.12C97.8319 55.12 100.76 54.256 103.16 52.528V41.2Z" fill="url(#paint0_linear)"/>
<defs>
<linearGradient id="paint0_linear" x1="-11.9995" y1="32" x2="230.346" y2="32" gradientUnits="userSpaceOnUse">
<stop stop-color="#F27A54"/>
<stop offset="1" stop-color="#A154F2"/>
</linearGradient>
</defs>
</svg>